PathFileType	4	(X/Y/Z)	s04c0303.trc
DataRate	CameraRate	NumFrames	NumMarkers	Units	OrigDataRate	OrigDataStartFrame	OrigNumFrames
200	200	4	50	mm	200	0	2000
Frame#	Time	racr			lacr			c7			jug			rlel			rdr			llel			ldr			s2			lic			ric			lasi			rasi			rpsi			lpsi			rgt			lgt			rth1			rth2			rth3			rth4			rlfc			rmfc			rsh1			rsh2			rsh3			rsh4			rlmal			rmmal			rcal			rtoe			rmt5			lth1			lth2			lth4			lth3			llfc			lmfc			lsh1			lsh2			lsh3			lsh4			llmal			lmmal			lcal			ltoe			lmt5			SBIKE			LBIKE			RBIKE			
		X1	Y1	Z1	X2	Y2	Z2	X3	Y3	Z3	X4	Y4	Z4	X5	Y5	Z5	X6	Y6	Z6	X7	Y7	Z7	X8	Y8	Z8	X9	Y9	Z9	X10	Y10	Z10	X11	Y11	Z11	X12	Y12	Z12	X13	Y13	Z13	X14	Y14	Z14	X15	Y15	Z15	X16	Y16	Z16	X17	Y17	Z17	X18	Y18	Z18	X19	Y19	Z19	X20	Y20	Z20	X21	Y21	Z21	X22	Y22	Z22	X23	Y23	Z23	X24	Y24	Z24	X25	Y25	Z25	X26	Y26	Z26	X27	Y27	Z27	X28	Y28	Z28	X29	Y29	Z29	X30	Y30	Z30	X31	Y31	Z31	X32	Y32	Z32	X33	Y33	Z33	X34	Y34	Z34	X35	Y35	Z35	X36	Y36	Z36	X37	Y37	Z37	X38	Y38	Z38	X39	Y39	Z39	X40	Y40	Z40	X41	Y41	Z41	X42	Y42	Z42	X43	Y43	Z43	X44	Y44	Z44	X45	Y45	Z45	X46	Y46	Z46	X47	Y47	Z47	X48	Y48	Z48	X49	Y49	Z49	X50	Y50	Z50	
0	0.0000	510.136699	1433.017575	-148.363535	529.146934	1434.715332	-410.003721	492.123588	1472.276684	-294.367172	496.958086	1323.699163	-287.620973	501.983284	1123.735480	-39.162583	699.281104	913.439162	-116.586235	530.818783	1156.925271	-534.466723	693.349693	908.899710	-474.742536	-52.376184	1179.520689	-287.747758	106.537705	1179.967483	-438.824774	113.219295	1163.029443	-124.964713	0.000000	0.000000	-0.000000	149.364318	1105.342793	-170.378740	-15.465169	1214.516568	-241.826817	-20.286652	1225.655031	-317.588841	54.428581	1103.659593	-111.208143	62.070339	1123.894903	-483.900873	132.050173	956.948880	-99.366859	190.203813	890.801130	-106.049164	209.523016	807.085409	-113.397324	219.649726	907.087639	-123.992910	260.645496	672.078899	-140.337325	230.153322	655.480727	-249.792139	196.295784	563.305782	-112.095810	177.579646	475.554171	-124.210956	115.714455	413.553638	-127.357575	203.817373	464.309217	-150.757056	55.341531	274.080622	-132.996593	74.168558	276.667380	-219.066312	-21.396836	253.954940	-171.251736	269.621125	178.521713	-162.173440	199.359523	169.574774	-106.408242	124.915830	1068.932705	-490.740651	210.800551	1060.008080	-494.876417	224.216050	1090.747051	-479.374869	282.605333	1007.872033	-504.906142	420.584253	925.474611	-484.212331	455.600234	907.711200	-375.448313	377.952180	819.386217	-500.638116	351.551293	739.531623	-475.282544	286.679893	679.200784	-469.119730	375.880923	730.403545	-446.178253	202.278341	561.216764	-451.464748	205.681900	575.634305	-364.651193	119.679300	548.575778	-405.031487	416.615288	502.359812	-421.376698	340.100814	472.863957	-479.470079	-184.734538	928.901953	-286.833960	-17.438731	79.156734	-485.478362	-17.505739	79.308925	-84.714627	
1	0.0050	510.109785	1432.967323	-148.387565	529.132235	1434.732682	-409.957422	492.090150	1472.292011	-294.353060	496.938254	1323.724378	-287.597896	501.965768	1123.754288	-39.170962	699.274588	913.453306	-116.564924	530.823247	1156.957347	-534.441792	693.370767	908.889105	-474.750428	-52.395629	1179.495454	-287.808434	106.534166	1179.912560	-438.833118	113.202144	1163.026336	-124.977811	0.000000	0.000000	-0.000000	149.356998	1105.319053	-170.374007	-15.433286	1214.447824	-241.864297	-20.295486	1225.627706	-317.632517	54.393876	1103.644111	-111.251706	62.075252	1123.901418	-483.924585	132.021173	956.952411	-99.358503	190.186499	890.807837	-106.067733	209.512802	807.078335	-113.387877	219.646006	907.088749	-123.965039	260.619307	672.066144	-140.305641	230.118065	655.470614	-249.763676	196.303855	563.305915	-112.086002	177.553772	475.558669	-124.187530	115.724148	413.495821	-127.363312	203.812671	464.285667	-150.718051	55.350986	274.053163	-132.991574	74.168691	276.659884	-219.081283	-21.386414	253.935198	-171.260536	269.637337	178.524275	-162.171322	199.361916	169.576571	-106.414168	124.941752	1068.923732	-490.736217	210.826171	1059.965206	-494.860401	224.248687	1090.764489	-479.367172	282.635779	1007.865284	-504.895245	420.585814	925.473700	-484.171389	455.584202	907.713842	-375.352281	377.980465	819.394817	-500.611517	351.570051	739.520437	-475.243186	286.697697	679.210903	-469.120692	375.887165	730.402706	-446.127524	202.272449	561.237315	-451.466045	205.684603	575.651234	-364.631501	119.679117	548.600978	-405.036524	416.607284	502.343590	-421.359940	340.089217	472.870144	-479.461672	-184.743627	928.896765	-286.842999	-17.433906	79.145791	-485.464431	-17.479548	79.311193	-84.721208	
2	0.0100	510.119189	1432.982565	-148.343757	529.130789	1434.758200	-409.957084	492.053075	1472.288326	-294.336783	496.937090	1323.753911	-287.598461	501.980079	1123.757617	-39.177524	699.272739	913.465934	-116.569865	530.823251	1156.964606	-534.437585	693.362940	908.882623	-474.742386	-52.407447	1179.473533	-287.822662	106.529467	1179.898363	-438.844879	113.168451	1163.012402	-124.997150	0.000000	0.000000	-0.000000	149.321759	1105.328591	-170.381809	-15.459591	1214.427563	-241.900170	-20.301454	1225.573495	-317.651456	54.355939	1103.644987	-111.259114	62.100635	1123.878592	-483.951520	131.982418	956.951895	-99.360578	190.155223	890.789920	-106.061212	209.464140	807.062531	-113.360510	219.616618	907.060786	-123.961184	260.602277	672.042922	-140.271670	230.100999	655.458512	-249.737916	196.283043	563.293742	-112.060978	177.556031	475.541654	-124.154878	115.734373	413.476811	-127.351880	203.794788	464.277204	-150.689462	55.358280	274.031572	-132.990418	74.168691	276.659884	-219.081283	-21.380386	253.934194	-171.269309	269.655354	178.514277	-162.163667	199.393421	169.569899	-106.423471	124.967159	1068.907647	-490.734146	210.844077	1059.988183	-494.840259	224.270712	1090.747922	-479.346584	282.665990	1007.859184	-504.858916	420.624165	925.483388	-484.109496	455.611761	907.724864	-375.304564	378.012216	819.398327	-500.568615	351.587376	739.525385	-475.211332	286.712155	679.229868	-469.099386	375.888210	730.409453	-446.084472	202.268889	561.259080	-451.463335	205.663756	575.671481	-364.632693	119.664992	548.629849	-405.045480	416.606353	502.342678	-421.355198	340.071754	472.888562	-479.467213	-184.747210	928.897513	-286.841835	-17.430481	79.148758	-485.465579	-17.499668	79.318830	-84.721763	
3	0.0150	510.097370	1432.998983	-148.357311	529.149195	1434.770032	-409.966728	492.144163	1472.586730	-294.602588	496.952419	1323.769336	-287.568171	501.968397	1123.765070	-39.195057	699.272693	913.457153	-116.569249	530.864057	1156.976568	-534.428649	693.360757	908.878386	-474.739731	-52.574323	1179.462372	-288.061022	106.546608	1179.872276	-438.860232	113.562791	1163.625576	-125.519220	0.000000	0.000000	-0.000000	149.028955	1105.436970	-170.825173	-15.697142	1216.494321	-242.162807	-20.058517	1226.192871	-318.076017	54.334096	1103.637103	-111.282445	62.129364	1123.840376	-483.979168	132.038658	957.131736	-99.123685	190.596016	890.345067	-105.869422	209.426674	807.043611	-113.346924	219.575174	907.071756	-123.912774	260.542465	672.042316	-140.235322	230.091003	655.447193	-249.694815	196.268932	563.297058	-112.041398	176.517517	474.693410	-125.071005	115.722239	413.467864	-127.334192	203.755251	463.855318	-150.841324	55.364224	273.978974	-132.786405	74.215866	276.635688	-219.076424	-21.359284	253.894287	-171.257339	269.670744	178.503740	-162.151883	199.410217	169.557344	-106.422066	124.990238	1068.885911	-490.716602	210.870703	1059.945784	-494.834264	224.057777	1090.901030	-479.705025	282.690581	1007.850627	-504.823733	420.591972	925.538757	-484.050132	455.614609	907.737345	-375.243719	378.033065	819.416593	-500.544830	351.650544	739.562580	-475.326714	286.804544	679.029642	-468.605618	375.953393	730.451953	-446.195741	202.320695	561.115935	-451.158003	205.623567	575.807340	-364.434679	119.661732	548.665372	-405.049926	416.580455	502.352632	-421.352562	340.127113	472.833115	-479.381272	-184.807837	928.881652	-287.107323	-17.431831	79.144169	-485.470974	-17.485206	79.307742	-84.727065	
